<?xml version="1.0" encoding="UTF-8"?>
<svg width="30px" height="30px" viewBox="0 0 30 30" version="1.1" xmlns="http://www.w3.org/2000/svg" xmlns:xlink="http://www.w3.org/1999/xlink">
    <!-- Generator: Sketch 55.1 (78136) - https://sketchapp.com -->
    <title>村庄-绿</title>
    <desc>Created with Sketch.</desc>
    <defs>
        <linearGradient x1="50%" y1="0%" x2="50%" y2="100%" id="linearGradient-1">
            <stop stop-color="#1ED397" offset="0%"></stop>
            <stop stop-color="#0AC285" offset="100%"></stop>
        </linearGradient>
    </defs>
    <g id="村庄-绿" stroke="none" stroke-width="1" fill="none" fill-rule="evenodd">
        <path d="M4.5,2.5 L25.5,2.5 C26.6045695,2.5 27.5,3.3954305 27.5,4.5 L27.5,25.5 C27.5,26.6045695 26.6045695,27.5 25.5,27.5 L4.5,27.5 C3.3954305,27.5 2.5,26.6045695 2.5,25.5 L2.5,4.5 C2.5,3.3954305 3.3954305,2.5 4.5,2.5 Z" id="矩形" fill="url(#linearGradient-1)"></path>
        <path d="M7.36964678,18.6823752 L7.36964678,20.6234417 L24,20.6234417 L23.6439332,19.0638166 L20.4828693,19.0556501 L20.4828693,15.6071661 L22.7652073,15.5995033 L22.0573956,14.3587978 L22.7652073,14.3561994 L21.9591054,12.8909669 L22.5708011,12.8888987 L20.1793017,8.35900994 L17.7595111,12.9063985 L18.3805399,12.9039061 L17.5649987,14.3742294 L18.2811096,14.371737 L17.5649987,15.6166053 L19.6518965,15.6096584 L19.6518965,19.0593621 L17.0925851,19.0713733 L15.3194101,19.0004463 L15.2964218,13.5411885 L16.8512743,13.5411885 L11.8005294,8.16521351 C11.5937938,7.94492883 11.2583024,7.94492883 11.0507448,8.16521351 L6,13.5411885 L7.37855574,13.5411885 L7.37855574,18.6826669 L7.36964678,18.6823752 Z M11.6142897,16.2209564 L13.3463403,16.2209564 L13.3463403,14.3772256 L11.6142897,14.3772256 L11.6142897,16.2209564 Z M11.6142897,18.6789548 L13.3463403,18.6789548 L13.3463403,16.8354361 L11.6142897,16.8354361 L11.6142897,18.6789548 Z M9.30493307,16.2209564 L11.0369837,16.2209564 L11.0369837,14.3772256 L9.30493307,14.3772256 L9.30493307,16.2209564 Z M9.30493307,18.6789548 L11.0369837,18.6789548 L11.0369837,16.8354361 L9.30493307,16.8354361 L9.30493307,18.6789548 Z" id="Fill-1" fill="#FFFFFF"></path>
    </g>
</svg>