<?xml version="1.0" encoding="UTF-8"?>
<svg width="30px" height="36px" viewBox="0 0 30 36" version="1.1" xmlns="http://www.w3.org/2000/svg" xmlns:xlink="http://www.w3.org/1999/xlink">
    <!-- Generator: Sketch 55.1 (78136) - https://sketchapp.com -->
    <title>绿</title>
    <desc>Created with Sketch.</desc>
    <defs>
        <linearGradient x1="50%" y1="0%" x2="50%" y2="100%" id="linearGradient-1">
            <stop stop-color="#1ED397" offset="0%"></stop>
            <stop stop-color="#0AC285" offset="100%"></stop>
        </linearGradient>
    </defs>
    <g id="绿" stroke="none" stroke-width="1" fill="none" fill-rule="evenodd">
        <path d="M15,0 C6.8043743,0 0,6.52981981 0,14.5840816 C0,26.2791932 10.9660461,27.4199838 15,35.3942886 C19.1682816,27.2225434 30,26.2791932 30,14.5840816 C30,6.52981981 23.3526967,0 15,0 Z" id="Fill-1" fill="url(#linearGradient-1)"></path>
        <g id="大楼备份" transform="translate(7.000000, 7.000000)" fill-rule="nonzero">
            <rect id="矩形" fill="#000000" opacity="0" x="0" y="3" width="16" height="16"></rect>
            <path d="M16.3333333,16 L1.66666667,16 C1.2985167,16 1.00010206,15.7014833 1.00010206,15.3333333 C1.00010206,14.9651834 1.2985167,14.666723 1.66666667,14.6666667 L2.33333333,14.6666667 L2.33333333,2 C2.33333333,0.8954305 3.22876383,0 4.33333333,0 L9.06,0 C10.1645695,0 11.06,0.8954305 11.06,2 L11.06,5.5 L14.22,6.41333333 C15.0759755,6.65977229 15.6658061,7.442589 15.6666667,8.33333333 L15.6666667,14.6666667 L16.3333333,14.6666667 C16.7014833,14.666723 16.9998979,14.9651834 16.9998979,15.3333333 C16.9998979,15.7014833 16.7014833,16 16.3333333,16 L16.3333333,16 Z M11.06,14.6666667 L14.3333333,14.6666667 L14.3333333,8.33333333 C14.345517,8.02721932 14.147506,7.75220409 13.8533333,7.66666667 L11.06,6.86 L11.06,9.18666667 L12.3933333,9.18666667 C12.7614833,9.18672303 13.0598979,9.48518336 13.0598979,9.85333334 C13.0598979,10.2214833 12.7614833,10.5199436 12.3933333,10.52 L11.06,10.52 L11.06,11.6466667 L12.3933333,11.6466667 C12.7614833,11.646723 13.0598979,11.9451834 13.0598979,12.3133333 C13.0598979,12.6814833 12.7614833,12.9799436 12.3933333,12.98 L11.06,12.98 L11.06,14.6666667 L11.06,14.6666667 Z M8.7,14.6666667 L9.72666667,14.6666667 L9.72666667,2 C9.72666667,1.63181016 9.42818984,1.33333333 9.06,1.33333333 L4.33333333,1.33333333 C3.9651435,1.33333333 3.66666667,1.63181017 3.66666667,2 L3.66666667,14.6666667 L4.7,14.6666667 L4.7,12 C4.7,11.6318102 4.99847684,11.3333333 5.36666667,11.3333333 L8.03333333,11.3333333 C8.21014432,11.3333333 8.3797136,11.4035712 8.50473785,11.5285955 C8.62976211,11.6536197 8.7,11.823189 8.7,12 L8.7,14.6666667 Z M6.03333333,14.6666667 L7.36666667,14.6666667 L7.36666667,12.6666667 L6.03333333,12.6666667 L6.03333333,14.6666667 Z M8.03333333,9.66666667 L5.36666667,9.66666667 C4.99847684,9.66666667 4.7,9.36818984 4.7,9 C4.7,8.63181016 4.99847684,8.33333333 5.36666667,8.33333333 L8.03333333,8.33333333 C8.40152316,8.33333333 8.7,8.63181016 8.7,9 C8.7,9.36818984 8.40152316,9.66666667 8.03333333,9.66666667 L8.03333333,9.66666667 Z M8.03333333,7 L5.36666667,7 C4.9985167,6.99994364 4.70010206,6.70148331 4.70010206,6.33333334 C4.70010206,5.96518336 4.9985167,5.66672303 5.36666667,5.66666667 L8.03333333,5.66666667 C8.4014833,5.66672303 8.69989794,5.96518336 8.69989794,6.33333334 C8.69989794,6.70148331 8.4014833,6.99994364 8.03333333,7 L8.03333333,7 Z M8.03333333,4.33333333 L5.36666667,4.33333333 C4.9985167,4.33327697 4.70010206,4.03481664 4.70010206,3.66666666 C4.70010206,3.29851669 4.9985167,3.00005636 5.36666667,3 L8.03333333,3 C8.4014833,3.00005636 8.69989794,3.29851669 8.69989794,3.66666666 C8.69989794,4.03481664 8.4014833,4.33327697 8.03333333,4.33333333 L8.03333333,4.33333333 Z" id="形状" fill="#FFFFFF"></path>
        </g>
    </g>
</svg>