<?xml version="1.0" encoding="UTF-8"?>
<svg width="30px" height="36px" viewBox="0 0 30 36" version="1.1" xmlns="http://www.w3.org/2000/svg" xmlns:xlink="http://www.w3.org/1999/xlink">
    <!-- Generator: Sketch 55.1 (78136) - https://sketchapp.com -->
    <title>红</title>
    <desc>Created with Sketch.</desc>
    <defs>
        <linearGradient x1="50%" y1="0%" x2="50%" y2="100%" id="linearGradient-1">
            <stop stop-color="#FFA25E" offset="0%"></stop>
            <stop stop-color="#FF3D3D" offset="100%"></stop>
        </linearGradient>
    </defs>
    <g id="红" stroke="none" stroke-width="1" fill="none" fill-rule="evenodd">
        <path d="M15,0 C6.8043743,0 0,6.52981981 0,14.5840816 C0,26.2791932 10.9660461,27.4199838 15,35.3942886 C19.1682816,27.2225434 30,26.2791932 30,14.5840816 C30,6.52981981 23.3526967,0 15,0 Z" id="Fill-1" fill="url(#linearGradient-1)"></path>
        <g id="大楼" transform="translate(7.000000, 7.000000)" fill-rule="nonzero">
            <rect id="矩形" fill="#000000" opacity="0" x="0" y="3" width="16" height="16"></rect>
            <path d="M15.3333333,16 L0.666666672,16 C0.298516697,16 0.000102062067,15.7014833 0.000102062067,15.3333333 C0.000102062067,14.9651834 0.298516697,14.666723 0.666666672,14.6666667 L1.33333333,14.6666667 L1.33333333,2 C1.33333333,0.8954305 2.22876383,0 3.33333333,0 L8.06,0 C9.1645695,0 10.06,0.8954305 10.06,2 L10.06,5.5 L13.22,6.41333333 C14.0759755,6.65977229 14.6658061,7.442589 14.6666667,8.33333333 L14.6666667,14.6666667 L15.3333333,14.6666667 C15.7014833,14.666723 15.9998979,14.9651834 15.9998979,15.3333333 C15.9998979,15.7014833 15.7014833,16 15.3333333,16 L15.3333333,16 Z M10.06,14.6666667 L13.3333333,14.6666667 L13.3333333,8.33333333 C13.345517,8.02721932 13.147506,7.75220409 12.8533333,7.66666667 L10.06,6.86 L10.06,9.18666667 L11.3933333,9.18666667 C11.7614833,9.18672303 12.0598979,9.48518336 12.0598979,9.85333334 C12.0598979,10.2214833 11.7614833,10.5199436 11.3933333,10.52 L10.06,10.52 L10.06,11.6466667 L11.3933333,11.6466667 C11.7614833,11.646723 12.0598979,11.9451834 12.0598979,12.3133333 C12.0598979,12.6814833 11.7614833,12.9799436 11.3933333,12.98 L10.06,12.98 L10.06,14.6666667 L10.06,14.6666667 Z M7.7,14.6666667 L8.72666667,14.6666667 L8.72666667,2 C8.72666667,1.63181016 8.42818984,1.33333333 8.06,1.33333333 L3.33333333,1.33333333 C2.9651435,1.33333333 2.66666667,1.63181017 2.66666667,2 L2.66666667,14.6666667 L3.7,14.6666667 L3.7,12 C3.7,11.6318102 3.99847684,11.3333333 4.36666667,11.3333333 L7.03333333,11.3333333 C7.21014432,11.3333333 7.3797136,11.4035712 7.50473785,11.5285955 C7.62976211,11.6536197 7.7,11.823189 7.7,12 L7.7,14.6666667 Z M5.03333333,14.6666667 L6.36666667,14.6666667 L6.36666667,12.6666667 L5.03333333,12.6666667 L5.03333333,14.6666667 Z M7.03333333,9.66666667 L4.36666667,9.66666667 C3.99847684,9.66666667 3.7,9.36818984 3.7,9 C3.7,8.63181016 3.99847684,8.33333333 4.36666667,8.33333333 L7.03333333,8.33333333 C7.40152316,8.33333333 7.7,8.63181016 7.7,9 C7.7,9.36818984 7.40152316,9.66666667 7.03333333,9.66666667 L7.03333333,9.66666667 Z M7.03333333,7 L4.36666667,7 C3.9985167,6.99994364 3.70010206,6.70148331 3.70010206,6.33333334 C3.70010206,5.96518336 3.9985167,5.66672303 4.36666667,5.66666667 L7.03333333,5.66666667 C7.4014833,5.66672303 7.69989794,5.96518336 7.69989794,6.33333334 C7.69989794,6.70148331 7.4014833,6.99994364 7.03333333,7 L7.03333333,7 Z M7.03333333,4.33333333 L4.36666667,4.33333333 C3.9985167,4.33327697 3.70010206,4.03481664 3.70010206,3.66666666 C3.70010206,3.29851669 3.9985167,3.00005636 4.36666667,3 L7.03333333,3 C7.4014833,3.00005636 7.69989794,3.29851669 7.69989794,3.66666666 C7.69989794,4.03481664 7.4014833,4.33327697 7.03333333,4.33333333 L7.03333333,4.33333333 Z" id="形状" fill="#FFFFFF"></path>
        </g>
    </g>
</svg>